<?xml version="1.0" encoding="utf-8"?>
<!-- Generator: Adobe Illustrator 25.0.0, SVG Export Plug-In . SVG Version: 6.00 Build 0)  -->
<svg version="1.1" xmlns="http://www.w3.org/2000/svg" xmlns:xlink="http://www.w3.org/1999/xlink" x="0px" y="0px" width="512px"
	 height="512px" viewBox="0 0 512 512" enable-background="new 0 0 512 512" xml:space="preserve">
<g id="Ebene_2">
	<rect x="174.9" y="92.1" fill="#FFFFFF" width="159.9" height="32.6"/>
</g>
<g id="Capa_1">
	<g>
		<g>
			<path fill="#5CDA83" d="M85.3,172.7c-8.1,0-15.1,2.8-20.7,8.5c-5.7,5.7-8.5,12.5-8.5,20.5v122.2c0,8.2,2.8,15.1,8.5,20.7
				c5.7,5.7,12.6,8.5,20.7,8.5c8.1,0,15-2.8,20.6-8.5c5.6-5.7,8.4-12.6,8.4-20.7V201.7c0-8-2.8-14.8-8.5-20.5
				C100,175.6,93.2,172.7,85.3,172.7z"/>
			<path fill="#5CDA83" d="M320.5,63.1l20.2-37.2c1.3-2.5,0.9-4.4-1.4-5.7c-2.5-1.1-4.4-0.6-5.7,1.7l-20.5,37.5
				c-18-8-37-11.9-57.1-11.9c-20.1,0-39.1,4-57.1,11.9l-20.5-37.5c-1.3-2.3-3.2-2.8-5.7-1.7c-2.3,1.3-2.7,3.2-1.4,5.7l20.2,37.2
				c-20.5,10.4-36.7,25-48.9,43.6c-12.1,18.7-18.2,39.1-18.2,61.2h262.8c0-22.2-6.1-42.6-18.2-61.2C356.9,88,340.8,73.5,320.5,63.1z
				 M203.9,117.2c-2.2,2.2-4.8,3.3-7.8,3.3c-3,0-5.6-1.1-7.7-3.3c-2.1-2.2-3.1-4.8-3.1-7.8c0-3,1-5.6,3.1-7.8
				c2.1-2.2,4.6-3.3,7.7-3.3c3,0,5.6,1.1,7.8,3.3c2.2,2.2,3.3,4.8,3.3,7.8C207.1,112.4,206,115,203.9,117.2z M323.6,117.2
				c-2.1,2.2-4.6,3.3-7.7,3.3c-3,0-5.6-1.1-7.8-3.3c-2.2-2.2-3.3-4.8-3.3-7.8c0-3,1.1-5.6,3.3-7.8c2.2-2.2,4.8-3.3,7.8-3.3
				c3,0,5.6,1.1,7.7,3.3c2.1,2.2,3.1,4.8,3.1,7.8C326.7,112.4,325.7,115,323.6,117.2z"/>
			<path fill="#5CDA83" d="M125.6,367.3c0,8.7,3,16.1,9.1,22.2c6.1,6.1,13.4,9.1,22.2,9.1h21l0.3,64.5c0,8.1,2.8,15.1,8.5,20.7
				c5.7,5.7,12.5,8.5,20.5,8.5c8.1,0,15.1-2.8,20.7-8.5c5.7-5.7,8.5-12.6,8.5-20.7v-64.5h39.2v64.5c0,8.1,2.8,15.1,8.5,20.7
				c5.7,5.7,12.6,8.5,20.7,8.5c8.1,0,15.1-2.8,20.7-8.5c5.7-5.7,8.5-12.6,8.5-20.7v-64.5h21.3c8.5,0,15.8-3,21.9-9.1
				c6.1-6.1,9.1-13.4,9.1-22.2V178.1H125.6V367.3z"/>
			<path fill="#5CDA83" d="M426.7,172.7c-8,0-14.8,2.8-20.5,8.4c-5.7,5.6-8.5,12.5-8.5,20.6v122.2c0,8.2,2.8,15.1,8.5,20.7
				c5.7,5.7,12.5,8.5,20.5,8.5c8.1,0,15.1-2.8,20.7-8.5c5.7-5.7,8.5-12.6,8.5-20.7V201.7c0-8.1-2.8-15-8.5-20.6
				C441.8,175.5,434.9,172.7,426.7,172.7z"/>
		</g>
	</g>
</g>
<g id="Ebene_3">
	<g>
		<path fill="#FFFFFF" d="M256,320.1c-31.5,0-57.2-25.6-57.2-57.2s25.6-57.2,57.2-57.2c31.5,0,57.2,25.6,57.2,57.2
			S287.5,320.1,256,320.1z M256,220.5c-23.4,0-42.4,19-42.4,42.4c0,23.4,19,42.4,42.4,42.4s42.4-19,42.4-42.4
			C298.4,239.6,279.4,220.5,256,220.5z"/>
	</g>
</g>
</svg>
